<?xml version="1.0" encoding="utf-8"?><svg viewBox="0 0 2000 2000" xmlns="http://www.w3.org/2000/svg" xmlns:xlink="http://www.w3.org/1999/xlink"><style>:root>svg{display:none}:root>svg:target{display:block}</style><svg fill="none" viewBox="0 0 55 38" id="advantage-banknote" xmlns="http://www.w3.org/2000/svg"><path d="M43.07 0H3.93A3.84 3.84 0 000 3.86v19.28A3.84 3.84 0 003.93 27h39.14A3.84 3.84 0 0047 23.14V3.86A3.97 3.97 0 0043.07 0zM3.03 24.73V2.77h40.54v21.96H3.03z" fill="#63D1BB"/><path d="M6.96 20.87h32.68V6.63H6.96v14.24zM23.5 8.5a5.33 5.33 0 015.35 5.24 5.33 5.33 0 01-5.35 5.24 5.33 5.33 0 01-5.35-5.24A5.27 5.27 0 0123.5 8.5z" fill="#63D1BB"/></svg><svg fill="none" viewBox="0 0 55 38" id="advantage-clew" xmlns="http://www.w3.org/2000/svg"><path d="M.3 14.95c-.4 2.08-.4 4.16 0 6.24l4.18-3.17-4.17-3.07zM24.85 2.59a17.96 17.96 0 00-15.58.4l7.64 5.53 7.94-5.93zm9.68 11.47l-4.9 3.66 5 3.66c.5-2.37.5-4.94-.1-7.32zm-25.16 19a17.84 17.84 0 0016 .1l-8.26-6.04-7.74 5.94zM8.05 15.25L1.73 10.7c-.3.7-.61 1.38-.81 2.08l5.4 3.95 1.73-1.48zm10.89 10.58l8.46 6.14c.3-.2.61-.4.81-.6.3-.2.61-.49.92-.79l-8.45-6.13-1.74 1.38zm-7.33-13.25L4.07 7.14c-.5.5-.91 1.09-1.32 1.68l7.03 5.14 1.83-1.38zM22.5 23.16l8.26 6.04c.5-.5.92-1.09 1.32-1.68l-7.84-5.74-1.73 1.38zM15.18 9.9L7.33 4.18c-.2.1-.4.3-.6.4-.42.3-.82.59-1.13.98l7.84 5.64 1.74-1.28zm10.89 10.5l7.13 5.14c.3-.7.61-1.29.92-1.98L27.91 19l-1.84 1.38zm.82-16.73L.92 23.37c.2.68.5 1.38.81 2.07l27-20.48c-.52-.5-1.13-.89-1.84-1.29zm4.38 3.86c-.3-.4-.61-.79-.92-1.09L2.85 27.22c.2.5.51.89.82 1.19.1.2.3.4.4.5l27.7-20.78c-.2-.2-.3-.4-.5-.6zM32.9 9.9L5.7 30.49c.51.5 1.12 1 1.74 1.39L33.92 11.9c-.3-.7-.61-1.39-1.02-1.98z" fill="#63D1BB"/></svg><svg fill="none" viewBox="0 0 55 38" id="advantage-flower" xmlns="http://www.w3.org/2000/svg"><path d="M16.5 38C25.57 38 33 30.65 33 21.66A16.4 16.4 0 0016.5 38zM4.74 16.65c0 2.55 2.07 4.5 4.54 4.5.93 0 1.86-.31 2.58-.82v.3c0 2.56 2.06 4.5 4.54 4.5a4.49 4.49 0 004.53-4.5v-.3c.73.5 1.65.82 2.58.82a4.49 4.49 0 004.54-4.5 4.43 4.43 0 00-2.58-4.09 4.43 4.43 0 002.58-4.08 4.54 4.54 0 00-7.12-3.68v-.3c0-2.56-2.06-4.5-4.53-4.5a4.49 4.49 0 00-4.54 4.5v.3a4.54 4.54 0 00-2.58-.82 4.49 4.49 0 00-4.54 4.5 4.43 4.43 0 002.58 4.08 4.61 4.61 0 00-2.58 4.1zM16.5 7.97a4.49 4.49 0 110 8.99 4.49 4.49 0 110-9zM0 21.66C0 30.65 7.42 38 16.5 38A16.4 16.4 0 000 21.66z" fill="#63D1BB"/></svg><svg fill="none" viewBox="0 0 55 38" id="advantage-heart" xmlns="http://www.w3.org/2000/svg"><path d="M41 13.45C41 8.79 36.98 5 32.04 5c-3.5 0-6.5 1.94-8.04 4.66A9.12 9.12 0 0015.96 5C11.02 5 7 8.79 7 13.45 7 22.29 22.15 32 24 32c1.96 0 17-9.62 17-18.55z" fill="#63D1BB"/></svg><svg fill="none" viewBox="0 0 55 38" id="advantage-present" xmlns="http://www.w3.org/2000/svg"><path d="M6.03 33h12.61V19.27H6.03V33zM34.39 9.7h-7.37c.5-.3 1-.5 1.41-.8 1.62-1.09 2.42-2.57 2.42-3.95 0-1.18-.6-2.17-1.41-2.86A4.72 4.72 0 0026.41 1c-1.2 0-2.42.4-3.33 1.09a10.36 10.36 0 00-3.43 4.05c0 .1-.1.2-.1.2-.3-.6-.6-1.2-1-1.78a8.5 8.5 0 00-2.53-2.47C15 1.49 13.9 1 12.69 1s-2.32.5-3.23 1.28a4.39 4.39 0 00-1.41 3.07c0 .69.2 1.48.6 2.17.6.89 1.41 1.58 2.63 2.17H4.6c-.9 0-1.61.7-1.61 1.58v5.83h15.54V9.7h1.92v7.4H36v-5.83c0-.89-.7-1.58-1.61-1.58zm-22.5-2.28c-.61-.4-1.02-.79-1.22-1.09-.2-.4-.3-.69-.3-.98 0-.5.2-1 .7-1.49.4-.4 1.01-.69 1.62-.69.7 0 1.41.2 2.02.7a7.6 7.6 0 012.62 3.15c.3.7.6 1.39.8 2.08-3.12-.3-5.14-.99-6.25-1.68zm10.59-1.58a6.84 6.84 0 011.91-1.88c.71-.5 1.42-.69 2.02-.69.6 0 1.11.2 1.52.5.4.3.6.69.6 1.18 0 .5-.3 1.28-1.51 2.07-1.11.8-3.13 1.68-6.16 2.28.3-1.19.91-2.47 1.62-3.46zM20.46 33h12.61V19.27H20.46V33z" fill="#63D1BB"/></svg><svg fill="none" viewBox="0 0 55 38" id="advantage-rocket" xmlns="http://www.w3.org/2000/svg"><path d="M40.95 8.75c-3.64-1-7.89-1.69-12.54-1.69-2.93 0-5.56.2-7.79.6L13.75 3H.1l5.87 6.15h8.49c-4.65 1.58-6.88 3.47-6.88 3.47v3.76s2.33 1.89 6.98 3.47h-8.7L0 26h13.65l6.87-4.66a49.05 49.05 0 0020.32-1.09 10.14 10.14 0 01-1.92-5.85c.1-1.98.91-3.87 2.03-5.65zm3.54.99c-1.32 1.59-2.03 3.17-2.03 4.76 0 1.59.71 3.17 2.03 4.76A52.7 52.7 0 0055 14.5s-4.04-2.58-10.51-4.76z" fill="#63D1BB"/></svg><svg fill="none" viewBox="0 0 50 26" id="arrow-left" xmlns="http://www.w3.org/2000/svg"><path d="M50 11H7.7l8.1-8.2L13 0 0 13l13 13 2.8-2.8L7.7 15H50v-4z" fill="#000"/></svg><svg fill="none" viewBox="0 0 21 21" id="cart" xmlns="http://www.w3.org/2000/svg"><path d="M19.23 8.24h-3.38L12.56 1.4c-.2-.4-.58-.5-.97-.3-.38.2-.48.6-.29 1l3 6.14H5.5l3-6.13c.2-.4 0-.8-.29-1-.38-.21-.77 0-.96.3L3.96 8.23H.77c-.38 0-.77.3-.77.8 0 .4.29.8.77.8h.2l.87 3.02c-.2.1-.3.3-.3.6 0 .4.3.7.68.7L3.86 20h12.28l1.64-5.83c.38 0 .67-.3.67-.7 0-.2-.1-.5-.29-.6l.87-3.02h.2c.38 0 .77-.3.77-.8 0-.51-.39-.81-.77-.81zm-4.35 10.15H4.83l-1.16-4.32h12.47l-1.26 4.32zm1.55-5.83H3.19l-.77-2.81H17.2l-.77 2.81z" fill="#000"/></svg><svg fill="none" viewBox="0 0 24 17" id="checkbox" xmlns="http://www.w3.org/2000/svg"><path d="M23.96 1.68l-1-.99-14.2 14.1-7.03-7.02-.99 1 7.03 7 1 1 1.06-1L23.96 1.69z" fill="#000"/></svg><svg fill="none" viewBox="0 0 32 32" id="email" xmlns="http://www.w3.org/2000/svg"><path d="M28 5H4C1.8 5 0 6.8 0 9v13c0 2.2 1.8 4 4 4h24c2.2 0 4-1.8 4-4V9c0-2.2-1.8-4-4-4zM2 10.3l7 5.3-7 5.3V10.3zM30 22a2 2 0 01-2 2H4a2 2 0 01-2-2l7.8-5.9 4.4 3.3a3 3 0 003.6 0l4.4-3.3L30 22zm0-1.2l-7-5.3 7-5.3v10.6zm-12.8-2.2c-.4.3-.8.4-1.2.4-.4 0-.9-.1-1.2-.4l-4.1-3.1-.8-.6L2 9c0-1.1.9-2 2-2h24a2 2 0 012 2l-12.8 9.6z" fill="#000"/></svg><svg fill="none" viewBox="0 0 47 82" id="flag" xmlns="http://www.w3.org/2000/svg"><path d="M7.77 4.77v38.56L47 24 7.77 4.77zM0 81.9V.9h3.83v81H0z" fill="#63D1BB"/><path d="M3.83 1H0v81h3.83V1z" fill="#231F20"/></svg><svg viewBox="0 0 27 34" id="htmlacademy" xmlns="http://www.w3.org/2000/svg"><path d="M13.6 0h-.1L0 1.4v24.7l13.5 8 13.4-8V1.4L13.6 0zM25 12.1L13.5 5.3v-.1h-.1l-.1-.1v.1L1.9 12.1v-9l11.5-1.2L25 3.1v9zM13.4 6.8l11.5 6.7-4.5 2.6-7.1-4.2v1.4l5.9 3.5-.9.5-5-3v1.4l3.8 2.3-.8.5-3-1.8v1.4l1.9 1.1-1.8 1.1L2 13.6l11.4-6.8zM1.9 15.1l11.4 6.8v1l-7.9-4.7v1.4l8 4.8v1.1l-8-4.7v1.4l8 4.8 8.1-4.9v-5.2l3.4-2v10l-11.5 6.9L1.9 25v-9.9z" fill="#63D1BB"/></svg><svg fill="none" viewBox="0 0 40 62" id="interior-items" xmlns="http://www.w3.org/2000/svg"><path d="M15.16 37.72c-.3 1-.2 2.19 0 3.58.5 2.59 1.7 5.97 2.4 9.65h5.08c.7-3.58 1.9-6.96 2.5-9.65.3-1.4.3-2.69 0-3.58-.3-.9-.9-1.6-2-2.3h-5.98c-1.2.7-1.8 1.4-2 2.3zm11.77 19.9H13.17c-1.3 0-2.3 1-2.3 2.2V62h18.36v-2.19c0-1.2-1-2.19-2.3-2.19zm7.09-55.43H22.34c0-1.2-1-2.19-2.29-2.19-1.3 0-2.3 1-2.3 2.19H6.09L0 27.57c.8-.5 1.6-1 2.6-1 1.39 0 2.19.8 2.89 1.4.7.6 1.2.8 1.4.8.3 0 .8-.3 1.49-.8.7-.5 1.6-1.4 2.9-1.4 1.29 0 2.19.8 2.88 1.4.7.5 1.2.8 1.5.8.1 0 .3-.1.6-.2.2-.1.5-.4.9-.6.5-.4 1.1-1 2-1.2.3-.1.6-.1.89-.1 1.3 0 2.2.8 2.9 1.4.7.5 1.19.8 1.49.8.3 0 .8-.3 1.4-.8.7-.6 1.6-1.4 2.89-1.4 1.4 0 2.2.8 2.9 1.4.29.3.59.5.89.6.2.1.4.2.6.2.3 0 .8-.3 1.4-.9.7-.6 1.59-1.4 2.89-1.4 1 0 1.8.5 2.59 1L34.02 2.19zM23.44 53.14h-6.88c-.7 0-1.1.5-1.1 1.1 0 .6.5 1.1 1.1 1.1h6.88c.7 0 1.1-.5 1.1-1.1.1-.6-.4-1.1-1.1-1.1z" fill="#149080"/><path d="M20.05 28.76c-.1 0-.3.1-.6.2-.2.1-.4.3-.6.4v3.68h2.3v-3.58c-.5-.4-.9-.7-1.1-.7z" fill="#149080"/></svg><svg fill="none" viewBox="0 0 60 60" id="kids-toys" xmlns="http://www.w3.org/2000/svg"><path d="M0 44l27.4 16V36.54L0 20.44v23.55zm51.3-31.52V15c0 1.81-3.5 3.32-7.7 3.32-4.3 0-7.7-1.5-7.7-3.32v-4.13c.3 1.71 3.6 3.12 7.7 3.12 4.3 0 7.7-1.5 7.7-3.32 0-1.81-3.5-3.32-7.7-3.32h-1l-5-2.92v3.12c0 1.81-3.5 3.32-7.7 3.32-2.7 0-5-.6-6.4-1.5-.2-.2-.4-.41-.7-.61-.4-.4-.6-.8-.6-1.21V4.53l-4.8 2.82h-1.1c-4.3 0-7.7 1.5-7.7 3.32 0 1.81 3.5 3.32 7.7 3.32 4.1 0 7.4-1.4 7.7-3.12V15c0 1.81-3.5 3.32-7.7 3.32-4.3 0-7.7-1.5-7.7-3.32v-2.42l-6 3.53 27.5 16.1 27.4-16-6.2-3.73zM37.7 22.75c0 1.81-3.5 3.32-7.7 3.32-4.3 0-7.7-1.5-7.7-3.32v-4.13c.3 1.72 3.6 3.13 7.7 3.13s7.4-1.41 7.7-3.13v4.13zm-5.1 14V60L60 44V20.73l-27.4 16zm-2.7-30.1c4.3 0 7.7-1.52 7.7-3.33S34.1 0 29.9 0c-4.3 0-7.7 1.51-7.7 3.32 0 1.81 3.4 3.32 7.7 3.32z" fill="#149080"/></svg><svg fill="none" viewBox="0 0 25 24" id="phone" xmlns="http://www.w3.org/2000/svg"><path d="M17.44 24h-1.1a17.63 17.63 0 01-11.2-5.73A18.8 18.8 0 010 6.72V5.33c.1-.89.5-1.48 1.1-2.07.61-.7 1.62-1.48 2.53-1.58.7 0 1.81.5 2.22 1.09.4.49.6 1.58.8 2.37.2.88.6 1.97.5 2.76-.2 1.19-1.8 1.68-2.21 2.57a16.4 16.4 0 007.56 8.2c.8-.5 1.61-1.88 2.82-1.88.4 0 1.01.2 1.41.3.5.1.91.3 1.31.49.71.3 2.02.6 2.42 1.19.4.59.7 1.58.6 2.17-.3 1.28-2.41 2.66-3.62 3.06zM12.6 1.48a10.8 10.8 0 0110.9 10.67H25C25 5.43 19.46 0 12.6 0v1.48z" fill="#000"/><path d="M12.6 9.19v1.58c.8 0 1.41.59 1.41 1.38h1.62a3 3 0 00-3.03-2.96zm0-3.07a6.11 6.11 0 016.15 6.03h1.61c0-4.15-3.42-7.5-7.66-7.5v1.47h-.1z" fill="#000"/></svg><svg fill="none" viewBox="0 0 101 101" id="play" xmlns="http://www.w3.org/2000/svg"><path d="M97.29 30.15s-.9-7.02-3.82-10.13c-3.61-4.01-7.73-4.11-9.54-4.31-13.35-1-33.43-1-33.43-1h-.1s-20.08 0-33.43 1c-1.91.2-5.93.3-9.54 4.31-2.81 3.1-3.82 10.13-3.82 10.13s-.9 8.22-.9 16.44v7.72c0 8.22.9 16.44.9 16.44s.9 7.02 3.82 10.13c3.61 4 8.43 3.9 10.54 4.31 7.63.8 32.53 1 32.53 1s20.08 0 33.43-1c1.91-.2 5.93-.3 9.54-4.31 2.81-3.1 3.82-10.13 3.82-10.13s.9-8.22.9-16.44v-7.72c0-8.22-.9-16.44-.9-16.44z" fill="#63D1BB"/><path d="M50.4 89c-1 0-25.1-.3-32.73-1h-.2c-.3-.1-.7-.1-1.1-.2-2.52-.3-7.23-.9-10.85-5.02C2.11 79.18 1.1 71.96 1 71.15c0-.3-1-8.52-1-16.74v-7.72c0-8.32.9-16.44.9-16.74v-.1c.1-.8 1.2-7.92 4.52-11.63a15.48 15.48 0 0110.74-5.12c.2 0 .4 0 .5-.1h.1c13.36-1 33.44-1 33.64-1h.1c.2 0 20.28 0 33.63 1h.1c.2 0 .3 0 .5.1 2.21.2 6.73.7 10.75 5.12 3.41 3.6 4.42 10.82 4.52 11.63 0 .3 1 8.52 1 16.84v7.72c0 8.32-.9 16.44-1 16.74v.1c-.1.8-1.2 8.02-4.52 11.63A15.48 15.48 0 0184.74 88c-.2 0-.4 0-.5.1h-.1c-13.36.9-33.54.9-33.74.9zm-32.03-6.42c7.53.7 31.33 1 32.13 1 .7 0 20.18 0 33.13-1 .2 0 .4 0 .6-.1 1.81-.2 4.62-.5 7.23-3.3 1.8-2.01 2.91-6.92 3.11-8.63.1-.5.9-8.42.9-16.14v-7.72c0-7.82-.9-15.64-1-16.14-.3-2.4-1.4-6.82-3.1-8.52-2.62-2.91-5.43-3.11-7.24-3.31-.2 0-.4 0-.6-.1-13.15-1-32.93-1-33.13-1h-.1c-.2 0-20.08 0-33.13 1-.2 0-.4 0-.6.1-1.81.2-4.62.5-7.23 3.3-1.81 2.01-2.91 6.92-3.12 8.63-.1.6-.9 8.42-.9 16.14v7.72c0 7.72.9 15.64.9 16.14.3 2.4 1.41 6.82 3.12 8.52 2.3 2.61 5.32 3.01 7.53 3.31.6-.1 1 0 1.5.1z" fill="#fff"/><path d="M38.45 32.55v35.8L68.37 50.5 38.45 32.55z" fill="#fff"/></svg><svg fill="none" viewBox="0 0 18 18" id="search" xmlns="http://www.w3.org/2000/svg"><path d="M17.7 16.06l-3.48-3.48a7.63 7.63 0 001.53-4.7c0-4.4-3.48-7.88-7.88-7.88A7.81 7.81 0 000 7.88c0 4.4 3.48 7.87 7.88 7.87 1.73 0 3.37-.61 4.7-1.53l3.48 3.47c.2.2.4.31.82.31.6 0 1.12-.51 1.12-1.13 0-.2-.1-.5-.3-.81zM2.24 7.88a5.67 5.67 0 015.63-5.63 5.67 5.67 0 015.62 5.63 5.67 5.67 0 01-5.63 5.62 5.67 5.67 0 01-5.62-5.63z" fill="#000"/></svg><svg fill="none" viewBox="0 0 28 22" id="social-telegram" xmlns="http://www.w3.org/2000/svg"><path fill-rule="evenodd" clip-rule="evenodd" d="M23.46 3.15c.18.15.27.38.23.61l-2.63 15.76a.66.66 0 01-1.01.44l-7.88-5.25a.66.66 0 01-.15-.96l2.61-3.26-4.36 2.9a.66.66 0 01-.65.05L4.36 10.8a.66.66 0 01.08-1.2l18.38-6.57a.66.66 0 01.64.11zM6.33 10.32l3.53 1.77 7.56-5.04a.66.66 0 01.88.96l-4.8 6 6.43 4.3 2.28-13.66-15.88 5.67z" fill="#231F20"/></svg><svg fill="none" viewBox="0 0 28 22" id="social-vk" xmlns="http://www.w3.org/2000/svg"><path d="M1 5.34c0-.86.52-1.32 1.55-1.38l3.97.02c.26 0 .44.13.53.38.4 1.26.86 2.34 1.37 3.25.5.92 1.17 1.97 1.99 3.16.07.15.18.23.34.23.13 0 .22-.06.3-.18l.07-.28.03-4.35c0-.3-.07-.5-.23-.6-.15-.1-.43-.18-.83-.23-.32-.05-.48-.23-.48-.55 0-.07 0-.12.02-.15.38-1.09 1.44-1.63 3.2-1.63l1.5-.03c.67 0 1.23.16 1.67.48.44.32.67.82.67 1.5v5.72c.12.08.24.12.34.12.27 0 .5-.15.7-.45 1.95-2.58 3-4.31 3.17-5.18 0-.02.01-.06.05-.13.12-.25.33-.47.61-.65.29-.19.53-.31.75-.38a.55.55 0 01.24-.05h4.13l.26.03c.36 0 .63.16.83.47.07.1.12.21.15.33a2.4 2.4 0 01.06.55v.18a6.11 6.11 0 01-.94 2.2c-.5.78-1.15 1.62-1.93 2.53-.79.9-1.27 1.5-1.47 1.78-.16.2-.24.39-.24.56 0 .13.07.28.21.45l3.9 4.63c.2.26.31.56.31.88 0 .38-.16.7-.48.95-.32.25-.7.4-1.14.43l-.46.02h-4.04c-.02 0-.06 0-.11.02a.86.86 0 01-.1.01c-.4 0-.76-.16-1.1-.48-.12-.13-.96-1.12-2.5-2.97a1.39 1.39 0 00-.38-.32 38.47 38.47 0 00-.53 2.24l-.08.42a1.4 1.4 0 01-1.12 1.06l-.37.02h-2.61c-1.48 0-2.95-.63-4.41-1.9a19.3 19.3 0 01-3.96-4.95 47.51 47.51 0 01-3.28-7.05A1.92 1.92 0 011 5.34zm16.01 6.51c-.37 0-.7-.1-1.01-.29a.9.9 0 01-.45-.79V5c0-.34-.1-.58-.27-.72-.18-.14-.49-.21-.93-.21l-1.52.05c-.76 0-1.34.12-1.73.37.78.36 1.17.93 1.17 1.71v4.43a1.5 1.5 0 01-.53 1.04c-.32.28-.68.42-1.07.42-.53 0-.94-.24-1.22-.73a26.16 26.16 0 01-3.1-5.63l-.23-.66-3.55-.02c-.23 0-.36.01-.38.03-.03.03-.04.1-.04.22 0 .15.01.3.05.48l.56 1.4c1.49 3.64 3.11 6.51 4.86 8.6 1.75 2.1 3.47 3.15 5.16 3.15h2.66c.1 0 .19-.03.24-.09.05-.06.1-.17.13-.34l.06-.25.5-2.21c.15-.3.27-.5.38-.6.2-.2.42-.28.69-.28.43 0 .86.24 1.3.73l2.27 2.71c.14.22.3.33.45.33h4.4c.53 0 .8-.13.8-.38a.47.47 0 00-.08-.25l-3.87-4.55c-.3-.35-.45-.73-.45-1.13 0-.4.14-.8.43-1.16.23-.34.68-.9 1.34-1.67.67-.78 1.25-1.51 1.75-2.19.5-.68.82-1.3.98-1.85l.08-.33a.37.37 0 01-.02-.16c0-.07-.01-.14-.03-.19h-4.18c-.27.1-.48.25-.64.45L21.8 6c-.45 1.16-1.6 2.94-3.5 5.36-.36.33-.8.5-1.3.5z" fill="#231F20"/></svg><svg fill="none" viewBox="0 0 28 22" id="social-youtube" xmlns="http://www.w3.org/2000/svg"><path d="M17.85 10.8l-5.24-3.5a.65.65 0 00-1.01.55v6.98a.65.65 0 001.01.54l5.24-3.49a.65.65 0 000-1.09zm-4.94 2.8V9.08l3.4 2.27-3.4 2.27zm12.48-8.56a2.4 2.4 0 00-1.45-1.63C20.22 1.98 14.25 2 14 2s-6.22-.02-9.94 1.4a2.4 2.4 0 00-1.45 1.64 25.32 25.32 0 00-.61 6.3c0 3.26.33 5.22.61 6.3a2.4 2.4 0 001.45 1.63c3.72 1.43 9.69 1.4 9.94 1.4h.08c.75 0 6.31-.04 9.86-1.4a2.4 2.4 0 001.45-1.64c.28-1.07.61-3.03.61-6.3 0-3.25-.33-5.22-.61-6.29zm-1.27 12.27a1.1 1.1 0 01-.65.74c-3.5 1.34-9.4 1.32-9.47 1.32-.07 0-5.98.02-9.47-1.32a1.09 1.09 0 01-.65-.74c-.27-1-.57-2.85-.57-5.97 0-3.12.3-4.97.57-5.97a1.1 1.1 0 01.65-.74C8.03 3.29 13.93 3.3 14 3.3c.07 0 5.98-.02 9.47 1.32a1.1 1.1 0 01.65.74c.27 1 .57 2.85.57 5.97 0 3.12-.3 4.96-.57 5.97z" fill="#231F20"/></svg><svg viewBox="0 0 2000 2000" id="sprite" xmlns="http://www.w3.org/2000/svg"/><svg fill="none" viewBox="0 0 32 33" id="video" xmlns="http://www.w3.org/2000/svg"><path d="M26 16l6-4v16l-6-4v-8zm-2 0v8c0 2.2-1.8 4-4 4H4c-2.2 0-4-1.8-4-4v-8c0-2.2 1.8-4 4-4h10c0-1.1.9-2 2-2V8H5c-.6 0-1-.4-1-1s.4-1 1-1h12c.6 0 1 .4 1 1v3a2 2 0 012 2c2.2 0 4 1.8 4 4zm-12 0H4v8h8v-8zm8 1c0-.6-.4-1-1-1h-4c-.6 0-1 .4-1 1s.4 1 1 1h4c.6 0 1-.4 1-1z" fill="#63D1BB"/></svg><svg fill="none" viewBox="0 0 62 34" id="wave-fill-desktop" xmlns="http://www.w3.org/2000/svg"><g clip-path="url(#awa)"><path d="M1218.8 0c-15.65 0-15.65 14-31.19 14-15.54 0-15.65-14-31.2-14-15.54 0-15.65 14-31.19 14-15.65 0-15.65-14-31.31-14-15.65 0-15.65 14-31.19 14-15.65 0-15.65-14-31.2-14-15.65 0-15.65 14-31.19 14-15.55 0-15.98-14-31.53-14-15.65 0-15.65 14-31.2 14-15.53 0-15.75-14-31.3-14-15.65 0-15.65 14-31.2 14-15.64 0-15.64-14-31.3-14-15.65 0-15.65 14-31.2 14-15.64 0-15.64-14-31.19-14-15.54 0-15.76 14-31.41 14S734.35 0 718.8 0c-15.65 0-15.65 14-31.2 14-15.64 0-15.64-14-31.3-14-15.65 0-15.65 14-31.2 14-15.64 0-15.64-14-31.19-14-15.65 0-15.65 14-31.2 14-15.64 0-15.64-14-31.19-14-15.65 0-15.65 14-31.3 14-15.66 0-15.66-14-31.3-14-15.66 0-15.66 14-31.31 14-15.65 0-15.65-14-31.3-14-15.66 0-15.66 14-31.31 14-15.65 0-15.65-14-31.3-14-15.66 0-15.66 14-31.3 14-15.66 0-15.66-14-31.31-14-15.65 0-15.65 14-31.2 14-15.65 0-15.65-14-31.3-14-15.66 0-15.66 14-31.3 14-15.66 0-15.66-14-31.31-14-15.65 0-15.65 14-31.3 14-15.66 0-15.66-14-31.31-14C78.15 0 78.15 14 62.5 14S46.85 0 31.3 0C15.76 0 15.65 14 0 14v20h1250V14c-15.65 0-15.65-14-31.2-14z" fill="#fff"/></g><defs><clipPath id="awa"><path fill="#fff" d="M0 0h62v34H0z"/></clipPath></defs></svg><svg fill="none" viewBox="0 0 39 24" id="wave-fill-tablet" xmlns="http://www.w3.org/2000/svg"><g clip-path="url(#axa)"><path d="M750.78 0c-9.64 0-9.64 9.88-19.21 9.88-9.58 0-9.65-9.88-19.22-9.88-9.57 0-9.64 9.88-19.22 9.88-9.64 0-9.64-9.88-19.28-9.88s-9.64 9.88-19.22 9.88C645 9.88 645 0 635.42 0c-9.64 0-9.64 9.88-19.22 9.88-9.57 0-9.84-9.88-19.42-9.88-9.64 0-9.64 9.88-19.21 9.88-9.58 0-9.71-9.88-19.29-9.88-9.64 0-9.64 9.88-19.21 9.88-9.65 0-9.65-9.88-19.29-9.88-9.64 0-9.64 9.88-19.21 9.88-9.64 0-9.64-9.88-19.22-9.88-9.57 0-9.7 9.88-19.35 9.88-9.64 0-9.64-9.88-19.22-9.88-9.64 0-9.64 9.88-19.21 9.88-9.64 0-9.64-9.88-19.29-9.88-9.64 0-9.64 9.88-19.21 9.88-9.64 0-9.64-9.88-19.22-9.88-9.64 0-9.64 9.88-19.22 9.88C337 9.88 337 0 327.42 0c-9.64 0-9.64 9.88-19.29 9.88-9.64 0-9.64-9.88-19.28-9.88s-9.64 9.88-19.28 9.88S259.93 0 250.28 0c-9.64 0-9.64 9.88-19.28 9.88S221.36 0 211.72 0c-9.65 0-9.65 9.88-19.29 9.88-9.64 0-9.64-9.88-19.28-9.88s-9.64 9.88-19.22 9.88C144.3 9.88 144.3 0 134.65 0s-9.64 9.88-19.28 9.88c-9.65 0-9.65-9.88-19.29-9.88-9.64 0-9.64 9.88-19.28 9.88S67.16 0 57.52 0c-9.38 0-9.38 9.88-19.02 9.88C28.86 9.88 28.86 0 19.28 0 9.71 0 9.64 9.88 0 9.88V24h770V9.88c-9.64 0-9.64-9.88-19.22-9.88z" fill="#fff"/></g><defs><clipPath id="axa"><path fill="#fff" d="M0 0h39v24H0z"/></clipPath></defs></svg><svg fill="none" viewBox="0 0 105 23" id="wave-stroke-desktop" xmlns="http://www.w3.org/2000/svg"><g clip-path="url(#aya)"><path d="M1050 23c-8.22 0-12.51-4.6-15.98-8.3-3.1-3.3-5.39-5.7-10.22-5.7-4.93 0-7.13 2.4-10.23 5.7-3.47 3.7-7.76 8.3-15.98 8.3s-12.5-4.6-15.98-8.3c-3.1-3.3-5.38-5.7-10.22-5.7-4.84 0-7.13 2.4-10.23 5.7-3.47 3.7-7.76 8.3-15.98 8.3-8.21 0-12.5-4.6-15.98-8.3-3.1-3.3-5.38-5.7-10.22-5.7-4.93 0-7.12 2.4-10.23 5.7-3.47 3.7-7.76 8.3-15.98 8.3-8.21 0-12.5-4.6-15.97-8.3-3.1-3.3-5.4-5.7-10.23-5.7-4.93 0-7.12 2.4-10.23 5.7-3.83 3.7-8.12 8.3-16.34 8.3s-12.5-4.6-15.98-8.3c-3.1-3.3-5.38-5.7-10.22-5.7-4.93 0-7.13 2.4-10.23 5.7-3.47 3.7-7.76 8.3-15.98 8.3s-12.5-4.6-15.98-8.3c-3.1-3.3-5.38-5.7-10.22-5.7-4.93 0-7.13 2.4-10.23 5.7-3.65 3.7-7.94 8.3-16.16 8.3-8.22 0-12.5-4.6-15.98-8.3-3.1-3.3-5.38-5.7-10.22-5.7-4.93 0-7.13 2.4-10.23 5.7-3.47 3.7-7.76 8.3-15.98 8.3s-12.5-4.6-15.98-8.3c-3.1-3.3-5.38-5.7-10.22-5.7-4.84 0-7.13 2.4-10.23 5.7-3.56 3.7-7.94 8.3-16.16 8.3-8.22 0-12.5-4.6-15.98-8.3-3.1-3.3-5.38-5.7-10.22-5.7-4.93 0-7.13 2.4-10.23 5.7-3.47 3.7-7.76 8.3-15.98 8.3s-12.5-4.6-15.98-8.3c-3.1-3.3-5.38-5.7-10.22-5.7-4.93 0-7.13 2.4-10.23 5.7-3.47 3.7-7.76 8.3-15.98 8.3-8.21 0-12.5-4.6-15.98-8.3-3.1-3.3-5.38-5.7-10.22-5.7-4.84 0-7.12 2.4-10.23 5.7-3.47 3.7-7.76 8.3-15.98 8.3-8.21 0-12.5-4.6-15.97-8.3-3.1-3.3-5.4-5.7-10.23-5.7-4.93 0-7.12 2.4-10.23 5.7-3.47 3.7-7.76 8.3-15.97 8.3-8.22 0-12.51-4.6-15.98-8.3-3.1-3.3-5.39-5.7-10.23-5.7-4.93 0-7.12 2.4-10.23 5.7-3.47 3.7-7.76 8.3-15.97 8.3-8.22 0-12.51-4.6-15.98-8.3-3.1-3.3-5.39-5.7-10.23-5.7-4.93 0-7.12 2.4-10.22 5.7-3.47 3.7-7.76 8.3-15.98 8.3s-12.51-4.6-15.98-8.3c-3.1-3.3-5.39-5.7-10.23-5.7-4.84 0-7.12 2.4-10.22 5.7-3.47 3.7-7.76 8.3-15.98 8.3s-12.51-4.6-15.98-8.3c-3.1-3.3-5.39-5.7-10.22-5.7-4.94 0-7.13 2.4-10.23 5.7-3.47 3.7-7.76 8.3-15.98 8.3s-12.5-4.6-15.98-8.3c-3.1-3.3-5.38-5.7-10.22-5.7-4.93 0-7.13 2.4-10.23 5.7-3.47 3.7-7.76 8.3-15.98 8.3s-12.5-4.6-15.98-8.3c-3.1-3.3-5.38-5.7-10.22-5.7-4.93 0-7.12 2.4-10.23 5.7-4.29 3.7-8.67 8.3-16.89 8.3s-12.5-4.6-15.98-8.3C85.92 11.4 83.63 9 78.8 9c-4.93 0-7.13 2.4-10.23 5.7-3.47 3.7-7.76 8.3-15.98 8.3s-12.5-4.6-15.98-8.3C33.41 11.4 31.13 9 26.3 9c-4.93 0-7.13 2.4-10.23 5.7C12.51 18.4 8.22 23 0 23v-9c4.93 0 7.12-2.4 10.23-5.7C13.7 4.6 17.99 0 26.3 0c8.21 0 12.5 4.6 15.97 8.3 3.1 3.3 5.4 5.7 10.23 5.7 4.93 0 7.12-2.4 10.23-5.7C66.2 4.6 70.58 0 78.8 0 87 0 91.3 4.6 94.77 8.3c3.1 3.3 5.4 5.7 10.23 5.7 4.93 0 7.12-2.4 10.23-5.7C118.7 4.6 122.99 0 131.2 0c8.22 0 12.51 4.6 15.98 8.3 3.1 3.3 5.39 5.7 10.23 5.7 4.93 0 7.12-2.4 10.22-5.7C171.1 4.6 175.4 0 183.61 0c8.22 0 12.51 4.6 15.98 8.3 3.1 3.3 5.39 5.7 10.23 5.7 4.93 0 7.12-2.4 10.22-5.7 3.47-3.7 7.76-8.3 15.98-8.3S248.53 4.6 252 8.3c3.1 3.3 5.39 5.7 10.23 5.7 4.93 0 7.12-2.4 10.22-5.7 3.47-3.7 7.76-8.3 15.98-8.3s12.5 4.6 15.98 8.3c3.1 3.3 5.39 5.7 10.22 5.7 4.94 0 7.13-2.4 10.23-5.7 3.47-3.7 7.76-8.3 15.98-8.3s12.5 4.6 15.98 8.3c3.1 3.3 5.38 5.7 10.22 5.7 4.84 0 7.13-2.4 10.23-5.7 3.47-3.7 7.76-8.3 15.98-8.3 8.21 0 12.5 4.6 15.98 8.3 3.1 3.3 5.38 5.7 10.22 5.7 4.93 0 7.12-2.4 10.23-5.7 3.47-3.7 7.76-8.3 15.98-8.3 8.21 0 12.5 4.6 15.97 8.3 3.1 3.3 5.4 5.7 10.23 5.7 4.93 0 7.12-2.4 10.23-5.7 3.47-3.7 7.76-8.3 15.98-8.3 8.21 0 12.5 4.6 15.97 8.3 3.1 3.3 5.39 5.7 10.23 5.7 4.93 0 7.12-2.4 10.23-5.7 3.47-3.7 7.76-8.3 15.97-8.3 8.22 0 12.51 4.6 15.98 8.3 3.1 3.3 5.39 5.7 10.23 5.7 4.93 0 7.12-2.4 10.22-5.7 3.47-3.7 7.76-8.3 15.98-8.3s12.51 4.6 15.98 8.3c3.1 3.3 5.39 5.7 10.23 5.7 4.93 0 7.12-2.4 10.22-5.7 3.47-3.7 7.76-8.3 15.98-8.3s12.51 4.6 15.98 8.3c3.1 3.3 5.39 5.7 10.23 5.7 4.93 0 7.12-2.4 10.22-5.7C695.2 4.6 699.48 0 707.7 0s12.5 4.6 15.98 8.3c3.1 3.3 5.39 5.7 10.22 5.7 4.94 0 7.13-2.4 10.23-5.7C748.7 4.6 752.99 0 761.3 0c8.21 0 12.5 4.6 15.97 8.3 3.1 3.3 5.4 5.7 10.23 5.7 4.84 0 7.12-2.4 10.23-5.7C801.2 4.6 805.49 0 813.7 0c8.22 0 12.51 4.6 15.98 8.3 3.1 3.3 5.39 5.7 10.23 5.7 4.84 0 7.12-2.4 10.23-5.7C853.7 4.6 857.99 0 866.3 0c8.3 0 12.5 4.6 15.97 8.3 3.1 3.3 5.4 5.7 10.23 5.7 4.84 0 7.12-2.4 10.23-5.7C906.2 4.6 910.49 0 918.7 0c8.22 0 12.51 4.6 15.98 8.3 3.1 3.3 5.39 5.7 10.23 5.7 4.93 0 7.12-2.4 10.23-5.7C958.6 4.6 962.9 0 971.1 0c8.22 0 12.51 4.6 15.98 8.3 3.1 3.3 5.39 5.7 10.23 5.7 4.84 0 7.12-2.4 10.22-5.7 3.47-3.7 7.76-8.3 15.98-8.3s12.51 4.6 15.98 8.3c3.1 3.3 5.39 5.7 10.23 5.7v9h.27z" fill="#F1F1F1"/></g><defs><clipPath id="aya"><path fill="#fff" d="M0 0h105v23H0z"/></clipPath></defs></svg><svg fill="none" viewBox="0 0 16 6" id="wave-stroke-mobile" xmlns="http://www.w3.org/2000/svg"><g clip-path="url(#aza)"><path d="M320 6c-2.5 0-3.81-1.2-4.87-2.17-.95-.86-1.64-1.48-3.12-1.48-1.5 0-2.17.62-3.11 1.48-1.06.97-2.37 2.17-4.87 2.17s-3.81-1.2-4.87-2.17c-.95-.86-1.64-1.48-3.12-1.48-1.47 0-2.17.62-3.12 1.48-1.05.97-2.36 2.17-4.86 2.17-2.5 0-3.82-1.2-4.87-2.17-.95-.86-1.65-1.48-3.12-1.48-1.5 0-2.17.62-3.12 1.48C275.9 4.8 274.6 6 272.08 6c-2.5 0-3.8-1.2-4.87-2.17-.94-.86-1.64-1.48-3.11-1.48-1.5 0-2.17.62-3.12 1.48C259.81 4.8 258.5 6 256 6c-2.5 0-3.81-1.2-4.87-2.17-.95-.86-1.64-1.48-3.12-1.48-1.5 0-2.17.62-3.11 1.48-1.06.97-2.37 2.17-4.87 2.17s-3.81-1.2-4.87-2.17c-.95-.86-1.64-1.48-3.12-1.48-1.5 0-2.17.62-3.11 1.48C227.8 4.8 226.5 6 224 6c-2.5 0-3.81-1.2-4.87-2.17-.95-.86-1.64-1.48-3.12-1.48-1.5 0-2.17.62-3.11 1.48-1.06.97-2.37 2.17-4.87 2.17s-3.81-1.2-4.87-2.17c-.95-.86-1.64-1.48-3.12-1.48-1.47 0-2.17.62-3.11 1.48C195.84 4.8 194.5 6 192 6c-2.5 0-3.81-1.2-4.87-2.17-.95-.86-1.64-1.48-3.12-1.48-1.5 0-2.17.62-3.11 1.48-1.06.97-2.37 2.17-4.87 2.17s-3.81-1.2-4.87-2.17c-.95-.86-1.64-1.48-3.12-1.48-1.5 0-2.17.62-3.11 1.48-1.06.97-2.37 2.17-4.87 2.17s-3.82-1.2-4.87-2.17c-.95-.86-1.65-1.48-3.12-1.48-1.47 0-2.17.62-3.12 1.48C147.9 4.8 146.6 6 144.08 6c-2.5 0-3.8-1.2-4.87-2.17-.94-.86-1.64-1.48-3.11-1.48-1.5 0-2.17.62-3.12 1.48-1.06.97-2.36 2.17-4.87 2.17-2.5 0-3.81-1.2-4.87-2.17-.94-.86-1.64-1.48-3.11-1.48-1.5 0-2.17.62-3.12 1.48-1.06.97-2.37 2.17-4.87 2.17s-3.81-1.2-4.87-2.17c-.95-.86-1.64-1.48-3.12-1.48-1.5 0-2.17.62-3.11 1.48C99.98 4.8 98.67 6 96.17 6s-3.82-1.2-4.87-2.17c-.95-.86-1.64-1.48-3.12-1.48-1.47 0-2.17.62-3.12 1.48C84.01 4.8 82.7 6 80.2 6c-2.5 0-3.8-1.2-4.86-2.17-.95-.86-1.65-1.48-3.12-1.48-1.5 0-2.17.62-3.12 1.48C68.03 4.8 66.73 6 64.22 6c-2.5 0-3.81-1.2-4.87-2.17-.94-.86-1.64-1.48-3.11-1.48-1.5 0-2.17.62-3.12 1.48C52.06 4.8 50.75 6 48.25 6s-3.81-1.2-4.87-2.17c-.95-.86-1.64-1.48-3.12-1.48-1.5 0-2.17.62-3.11 1.48C35.84 4.8 34.5 6 32 6c-2.5 0-3.81-1.2-4.87-2.17-.95-.86-1.64-1.48-3.12-1.48-1.5 0-2.17.62-3.11 1.48C19.84 4.8 18.53 6 16.03 6s-3.81-1.2-4.87-2.17C10.18 2.97 9.49 2.35 8 2.35c-1.5 0-2.17.62-3.11 1.48C3.8 4.8 2.5 6 0 6V3.65c1.5 0 2.17-.62 3.12-1.48C4.17 1.2 5.48 0 8.02 0c2.5 0 3.8 1.2 4.86 2.17.95.86 1.65 1.48 3.12 1.48 1.5 0 2.17-.62 3.12-1.48C20.17 1.2 21.5 0 24.02 0c2.5 0 3.8 1.2 4.86 2.17.95.86 1.65 1.48 3.12 1.48 1.5 0 2.17-.62 3.12-1.48C36.17 1.2 37.48 0 39.99 0c2.5 0 3.8 1.2 4.87 2.17.94.86 1.64 1.48 3.11 1.48 1.5 0 2.17-.62 3.12-1.48C52.15 1.2 53.45 0 55.96 0c2.5 0 3.81 1.2 4.87 2.17.94.86 1.64 1.48 3.11 1.48 1.5 0 2.17-.62 3.12-1.48C68.12 1.2 69.43 0 71.93 0s3.81 1.2 4.87 2.17c.95.86 1.64 1.48 3.12 1.48 1.5 0 2.17-.62 3.11-1.48C84.1 1.2 85.4 0 87.9 0s3.81 1.2 4.87 2.17c.95.86 1.64 1.48 3.12 1.48 1.5 0 2.17-.62 3.12-1.48 1.05-.97 2.36-2.17 4.86-2.17 2.5 0 3.82 1.2 4.87 2.17.95.86 1.65 1.48 3.12 1.48 1.48 0 2.17-.62 3.12-1.48 1.05-.97 2.36-2.17 4.87-2.17 2.5 0 3.8 1.2 4.87 2.17.94.86 1.64 1.48 3.11 1.48 1.5 0 2.17-.62 3.12-1.48 1.06-.97 2.37-2.17 4.87-2.17s3.81 1.2 4.87 2.17c.94.86 1.64 1.48 3.12 1.48 1.5 0 2.17-.62 3.11-1.48C147.98 1.2 149.3 0 151.8 0s3.81 1.2 4.87 2.17c.95.86 1.64 1.48 3.12 1.48 1.5 0 2.17-.62 3.11-1.48 1.06-.97 2.37-2.17 4.87-2.17s3.82 1.2 4.87 2.17c.95.86 1.65 1.48 3.12 1.48 1.5 0 2.17-.62 3.12-1.48 1.05-.97 2.36-2.17 4.87-2.17 2.5 0 3.8 1.2 4.86 2.17.95.86 1.65 1.48 3.12 1.48 1.5 0 2.17-.62 3.12-1.48C195.9 1.2 197.2 0 199.7 0c2.5 0 3.81 1.2 4.87 2.17.94.86 1.64 1.48 3.11 1.48 1.5 0 2.17-.62 3.12-1.48 1.06-.97 2.37-2.17 4.87-2.17s3.81 1.2 4.87 2.17c.95.86 1.64 1.48 3.12 1.48 1.5 0 2.17-.62 3.11-1.48C228.17 1.2 229.47 0 232 0c2.5 0 3.82 1.2 4.87 2.17.95.86 1.65 1.48 3.12 1.48 1.47 0 2.17-.62 3.12-1.48 1.05-.97 2.36-2.17 4.87-2.17 2.5 0 3.8 1.2 4.87 2.17.94.86 1.64 1.48 3.11 1.48 1.48 0 2.17-.62 3.12-1.48C260.17 1.2 261.49 0 264 0c2.54 0 3.82 1.2 4.87 2.17.95.86 1.64 1.48 3.12 1.48 1.48 0 2.17-.62 3.12-1.48 1.05-.97 2.36-2.17 4.87-2.17 2.5 0 3.8 1.2 4.87 2.17.94.86 1.64 1.48 3.11 1.48 1.5 0 2.17-.62 3.12-1.48 1.06-.97 2.36-2.17 4.87-2.17 2.5 0 3.81 1.2 4.87 2.17.94.86 1.64 1.48 3.11 1.48 1.48 0 2.18-.62 3.12-1.48 1.06-.97 2.37-2.17 4.87-2.17s3.81 1.2 4.87 2.17c.95.86 1.64 1.48 3.12 1.48V6h.08z" fill="#F1F1F1"/></g><defs><clipPath id="aza"><path fill="#fff" d="M0 0h16v6H0z"/></clipPath></defs></svg><svg fill="none" viewBox="0 0 39 17" id="wave-stroke-tablet" xmlns="http://www.w3.org/2000/svg"><g clip-path="url(#baa)"><path d="M772 17c-6.04 0-9.2-3.4-11.75-6.13-2.28-2.44-3.96-4.22-7.52-4.22-3.62 0-5.23 1.78-7.51 4.22-2.56 2.73-5.71 6.13-11.75 6.13-6.05 0-9.2-3.4-11.75-6.13-2.28-2.44-3.96-4.22-7.52-4.22-3.56 0-5.24 1.78-7.52 4.22-2.55 2.73-5.7 6.13-11.75 6.13-6.04 0-9.2-3.4-11.74-6.13-2.29-2.44-3.96-4.22-7.52-4.22-3.63 0-5.24 1.78-7.52 4.22-2.55 2.73-5.7 6.13-11.75 6.13-6.04 0-9.2-3.4-11.75-6.13-2.28-2.44-3.96-4.22-7.51-4.22-3.63 0-5.24 1.78-7.52 4.22C626.8 13.6 623.64 17 617.6 17c-6.04 0-9.2-3.4-11.75-6.13-2.28-2.44-3.96-4.22-7.52-4.22-3.62 0-5.23 1.78-7.51 4.22-2.56 2.73-5.71 6.13-11.75 6.13-6.05 0-9.2-3.4-11.75-6.13-2.28-2.44-3.96-4.22-7.52-4.22-3.62 0-5.23 1.78-7.52 4.22C549.6 13.6 546.44 17 540.4 17c-6.04 0-9.2-3.4-11.75-6.13-2.28-2.44-3.96-4.22-7.52-4.22-3.62 0-5.23 1.78-7.51 4.22-2.56 2.73-5.71 6.13-11.75 6.13-6.05 0-9.2-3.4-11.75-6.13-2.28-2.44-3.96-4.22-7.52-4.22-3.56 0-5.24 1.78-7.52 4.22-2.62 2.73-5.84 6.13-11.88 6.13-6.04 0-9.2-3.4-11.75-6.13-2.28-2.44-3.96-4.22-7.52-4.22-3.62 0-5.23 1.78-7.51 4.22-2.56 2.73-5.71 6.13-11.75 6.13-6.05 0-9.2-3.4-11.75-6.13-2.28-2.44-3.96-4.22-7.52-4.22-3.62 0-5.23 1.78-7.52 4.22-2.55 2.73-5.7 6.13-11.75 6.13-6.04 0-9.2-3.4-11.74-6.13-2.29-2.44-3.96-4.22-7.52-4.22-3.56 0-5.24 1.78-7.52 4.22-2.55 2.73-5.7 6.13-11.75 6.13-6.04 0-9.2-3.4-11.75-6.13-2.28-2.44-3.96-4.22-7.52-4.22-3.62 0-5.23 1.78-7.51 4.22-2.56 2.73-5.71 6.13-11.75 6.13s-9.2-3.4-11.75-6.13c-2.28-2.44-3.96-4.22-7.52-4.22-3.62 0-5.23 1.78-7.52 4.22-2.55 2.73-5.7 6.13-11.74 6.13-6.05 0-9.2-3.4-11.75-6.13-2.29-2.44-3.96-4.22-7.52-4.22-3.63 0-5.24 1.78-7.52 4.22C241.2 13.6 238.05 17 232 17c-6.04 0-9.2-3.4-11.75-6.13-2.28-2.44-3.96-4.22-7.51-4.22-3.56 0-5.24 1.78-7.52 4.22-2.55 2.73-5.7 6.13-11.75 6.13-6.04 0-9.2-3.4-11.75-6.13-2.28-2.44-3.96-4.22-7.52-4.22-3.62 0-5.23 1.78-7.51 4.22-2.56 2.73-5.71 6.13-11.75 6.13s-9.2-3.4-11.75-6.13c-2.28-2.44-3.96-4.22-7.52-4.22-3.62 0-5.24 1.78-7.52 4.22-2.55 2.73-5.7 6.13-11.75 6.13-6.04 0-9.2-3.4-11.74-6.13-2.29-2.44-3.96-4.22-7.52-4.22-3.63 0-5.24 1.78-7.52 4.22C86.46 13.6 83.24 17 77.2 17s-9.2-3.4-11.75-6.13c-2.28-2.44-3.96-4.22-7.52-4.22-3.62 0-5.23 1.78-7.52 4.22C47.87 13.6 44.71 17 38.67 17s-9.2-3.4-11.75-6.13c-2.35-2.44-4.03-4.22-7.59-4.22-3.62 0-5.23 1.78-7.51 4.22C9.2 13.6 6.03 17 0 17v-6.65c3.63 0 5.24-1.78 7.52-4.22C10.07 3.4 13.22 0 19.33 0c6.05 0 9.2 3.4 11.75 6.13 2.28 2.44 3.96 4.22 7.52 4.22 3.63 0 5.24-1.78 7.52-4.22C48.67 3.4 51.89 0 57.93 0c6.05 0 9.2 3.4 11.75 6.13 2.28 2.44 3.96 4.22 7.52 4.22 3.63 0 5.24-1.78 7.52-4.22C87.27 3.4 90.42 0 96.47 0c6.04 0 9.2 3.4 11.74 6.13 2.29 2.44 3.97 4.22 7.52 4.22 3.63 0 5.24-1.78 7.52-4.22C125.8 3.4 128.95 0 135 0c6.04 0 9.2 3.4 11.75 6.13 2.28 2.44 3.96 4.22 7.52 4.22 3.62 0 5.23-1.78 7.51-4.22C164.34 3.4 167.5 0 173.53 0s9.2 3.4 11.75 6.13c2.28 2.44 3.96 4.22 7.52 4.22 3.62 0 5.23-1.78 7.52-4.22C202.87 3.4 206.02 0 212.07 0c6.04 0 9.2 3.4 11.74 6.13 2.28 2.44 3.96 4.22 7.52 4.22 3.63 0 5.24-1.78 7.52-4.22C241.4 3.4 244.55 0 250.6 0c6.04 0 9.2 3.4 11.75 6.13 2.28 2.44 3.96 4.22 7.51 4.22 3.56 0 5.24-1.78 7.52-4.22C279.93 3.4 283.08 0 289.13 0c6.04 0 9.2 3.4 11.75 6.13 2.28 2.44 3.96 4.22 7.52 4.22 3.62 0 5.23-1.78 7.52-4.22C318.47 3.4 321.62 0 327.66 0s9.2 3.4 11.75 6.13c2.28 2.44 3.96 4.22 7.52 4.22 3.63 0 5.24-1.78 7.52-4.22C357 3.4 360.15 0 366.2 0c6.04 0 9.2 3.4 11.74 6.13 2.29 2.44 3.96 4.22 7.52 4.22 3.63 0 5.24-1.78 7.52-4.22C395.53 3.4 398.68 0 404.73 0c6.04 0 9.2 3.4 11.75 6.13 2.28 2.44 3.96 4.22 7.52 4.22 3.62 0 5.23-1.78 7.51-4.22C434.07 3.4 437.22 0 443.26 0s9.2 3.4 11.75 6.13c2.28 2.44 3.96 4.22 7.52 4.22 3.62 0 5.24-1.78 7.52-4.22C472.6 3.4 475.75 0 481.8 0c6.04 0 9.2 3.4 11.74 6.13 2.28 2.44 3.96 4.22 7.52 4.22 3.63 0 5.24-1.78 7.52-4.22C511.13 3.4 514.28 0 520.33 0c6.04 0 9.2 3.4 11.75 6.13 2.28 2.44 3.96 4.22 7.51 4.22 3.63 0 5.24-1.78 7.52-4.22C550.47 3.4 553.62 0 559.73 0c6.04 0 9.2 3.4 11.75 6.13 2.28 2.44 3.96 4.22 7.52 4.22 3.56 0 5.24-1.78 7.52-4.22C589.07 3.4 592.22 0 598.27 0c6.04 0 9.2 3.4 11.74 6.13 2.29 2.44 3.97 4.22 7.52 4.22 3.56 0 5.24-1.78 7.52-4.22C627.67 3.4 630.83 0 636.93 0c6.11 0 9.2 3.4 11.75 6.13 2.28 2.44 3.96 4.22 7.52 4.22 3.56 0 5.24-1.78 7.52-4.22C666.27 3.4 669.42 0 675.47 0c6.04 0 9.2 3.4 11.74 6.13 2.29 2.44 3.96 4.22 7.52 4.22 3.63 0 5.24-1.78 7.52-4.22C704.8 3.4 707.95 0 714 0c6.04 0 9.2 3.4 11.75 6.13 2.28 2.44 3.96 4.22 7.52 4.22 3.55 0 5.23-1.78 7.51-4.22C743.34 3.4 746.5 0 752.53 0s9.2 3.4 11.75 6.13c2.28 2.44 3.96 4.22 7.52 4.22V17h.2z" fill="#F1F1F1"/></g><defs><clipPath id="baa"><path fill="#fff" d="M0 0h39v17H0z"/></clipPath></defs></svg></svg>