<svg fill="none" xmlns="http://www.w3.org/2000/svg" viewBox="0 0 39 17"><g clip-path="url(#a)"><path d="M772 17c-6.04 0-9.2-3.4-11.75-6.13-2.28-2.44-3.96-4.22-7.52-4.22-3.62 0-5.23 1.78-7.51 4.22-2.56 2.73-5.71 6.13-11.75 6.13-6.05 0-9.2-3.4-11.75-6.13-2.28-2.44-3.96-4.22-7.52-4.22-3.56 0-5.24 1.78-7.52 4.22-2.55 2.73-5.7 6.13-11.75 6.13-6.04 0-9.2-3.4-11.74-6.13-2.29-2.44-3.96-4.22-7.52-4.22-3.63 0-5.24 1.78-7.52 4.22-2.55 2.73-5.7 6.13-11.75 6.13-6.04 0-9.2-3.4-11.75-6.13-2.28-2.44-3.96-4.22-7.51-4.22-3.63 0-5.24 1.78-7.52 4.22C626.8 13.6 623.64 17 617.6 17c-6.04 0-9.2-3.4-11.75-6.13-2.28-2.44-3.96-4.22-7.52-4.22-3.62 0-5.23 1.78-7.51 4.22-2.56 2.73-5.71 6.13-11.75 6.13-6.05 0-9.2-3.4-11.75-6.13-2.28-2.44-3.96-4.22-7.52-4.22-3.62 0-5.23 1.78-7.52 4.22C549.6 13.6 546.44 17 540.4 17c-6.04 0-9.2-3.4-11.75-6.13-2.28-2.44-3.96-4.22-7.52-4.22-3.62 0-5.23 1.78-7.51 4.22-2.56 2.73-5.71 6.13-11.75 6.13-6.05 0-9.2-3.4-11.75-6.13-2.28-2.44-3.96-4.22-7.52-4.22-3.56 0-5.24 1.78-7.52 4.22-2.62 2.73-5.84 6.13-11.88 6.13-6.04 0-9.2-3.4-11.75-6.13-2.28-2.44-3.96-4.22-7.52-4.22-3.62 0-5.23 1.78-7.51 4.22-2.56 2.73-5.71 6.13-11.75 6.13-6.05 0-9.2-3.4-11.75-6.13-2.28-2.44-3.96-4.22-7.52-4.22-3.62 0-5.23 1.78-7.52 4.22-2.55 2.73-5.7 6.13-11.75 6.13-6.04 0-9.2-3.4-11.74-6.13-2.29-2.44-3.96-4.22-7.52-4.22-3.56 0-5.24 1.78-7.52 4.22-2.55 2.73-5.7 6.13-11.75 6.13-6.04 0-9.2-3.4-11.75-6.13-2.28-2.44-3.96-4.22-7.52-4.22-3.62 0-5.23 1.78-7.51 4.22-2.56 2.73-5.71 6.13-11.75 6.13s-9.2-3.4-11.75-6.13c-2.28-2.44-3.96-4.22-7.52-4.22-3.62 0-5.23 1.78-7.52 4.22-2.55 2.73-5.7 6.13-11.74 6.13-6.05 0-9.2-3.4-11.75-6.13-2.29-2.44-3.96-4.22-7.52-4.22-3.63 0-5.24 1.78-7.52 4.22C241.2 13.6 238.05 17 232 17c-6.04 0-9.2-3.4-11.75-6.13-2.28-2.44-3.96-4.22-7.51-4.22-3.56 0-5.24 1.78-7.52 4.22-2.55 2.73-5.7 6.13-11.75 6.13-6.04 0-9.2-3.4-11.75-6.13-2.28-2.44-3.96-4.22-7.52-4.22-3.62 0-5.23 1.78-7.51 4.22-2.56 2.73-5.71 6.13-11.75 6.13s-9.2-3.4-11.75-6.13c-2.28-2.44-3.96-4.22-7.52-4.22-3.62 0-5.24 1.78-7.52 4.22-2.55 2.73-5.7 6.13-11.75 6.13-6.04 0-9.2-3.4-11.74-6.13-2.29-2.44-3.96-4.22-7.52-4.22-3.63 0-5.24 1.78-7.52 4.22C86.46 13.6 83.24 17 77.2 17s-9.2-3.4-11.75-6.13c-2.28-2.44-3.96-4.22-7.52-4.22-3.62 0-5.23 1.78-7.52 4.22C47.87 13.6 44.71 17 38.67 17s-9.2-3.4-11.75-6.13c-2.35-2.44-4.03-4.22-7.59-4.22-3.62 0-5.23 1.78-7.51 4.22C9.2 13.6 6.03 17 0 17v-6.65c3.63 0 5.24-1.78 7.52-4.22C10.07 3.4 13.22 0 19.33 0c6.05 0 9.2 3.4 11.75 6.13 2.28 2.44 3.96 4.22 7.52 4.22 3.63 0 5.24-1.78 7.52-4.22C48.67 3.4 51.89 0 57.93 0c6.05 0 9.2 3.4 11.75 6.13 2.28 2.44 3.96 4.22 7.52 4.22 3.63 0 5.24-1.78 7.52-4.22C87.27 3.4 90.42 0 96.47 0c6.04 0 9.2 3.4 11.74 6.13 2.29 2.44 3.97 4.22 7.52 4.22 3.63 0 5.24-1.78 7.52-4.22C125.8 3.4 128.95 0 135 0c6.04 0 9.2 3.4 11.75 6.13 2.28 2.44 3.96 4.22 7.52 4.22 3.62 0 5.23-1.78 7.51-4.22C164.34 3.4 167.5 0 173.53 0s9.2 3.4 11.75 6.13c2.28 2.44 3.96 4.22 7.52 4.22 3.62 0 5.23-1.78 7.52-4.22C202.87 3.4 206.02 0 212.07 0c6.04 0 9.2 3.4 11.74 6.13 2.28 2.44 3.96 4.22 7.52 4.22 3.63 0 5.24-1.78 7.52-4.22C241.4 3.4 244.55 0 250.6 0c6.04 0 9.2 3.4 11.75 6.13 2.28 2.44 3.96 4.22 7.51 4.22 3.56 0 5.24-1.78 7.52-4.22C279.93 3.4 283.08 0 289.13 0c6.04 0 9.2 3.4 11.75 6.13 2.28 2.44 3.96 4.22 7.52 4.22 3.62 0 5.23-1.78 7.52-4.22C318.47 3.4 321.62 0 327.66 0s9.2 3.4 11.75 6.13c2.28 2.44 3.96 4.22 7.52 4.22 3.63 0 5.24-1.78 7.52-4.22C357 3.4 360.15 0 366.2 0c6.04 0 9.2 3.4 11.74 6.13 2.29 2.44 3.96 4.22 7.52 4.22 3.63 0 5.24-1.78 7.52-4.22C395.53 3.4 398.68 0 404.73 0c6.04 0 9.2 3.4 11.75 6.13 2.28 2.44 3.96 4.22 7.52 4.22 3.62 0 5.23-1.78 7.51-4.22C434.07 3.4 437.22 0 443.26 0s9.2 3.4 11.75 6.13c2.28 2.44 3.96 4.22 7.52 4.22 3.62 0 5.24-1.78 7.52-4.22C472.6 3.4 475.75 0 481.8 0c6.04 0 9.2 3.4 11.74 6.13 2.28 2.44 3.96 4.22 7.52 4.22 3.63 0 5.24-1.78 7.52-4.22C511.13 3.4 514.28 0 520.33 0c6.04 0 9.2 3.4 11.75 6.13 2.28 2.44 3.96 4.22 7.51 4.22 3.63 0 5.24-1.78 7.52-4.22C550.47 3.4 553.62 0 559.73 0c6.04 0 9.2 3.4 11.75 6.13 2.28 2.44 3.96 4.22 7.52 4.22 3.56 0 5.24-1.78 7.52-4.22C589.07 3.4 592.22 0 598.27 0c6.04 0 9.2 3.4 11.74 6.13 2.29 2.44 3.97 4.22 7.52 4.22 3.56 0 5.24-1.78 7.52-4.22C627.67 3.4 630.83 0 636.93 0c6.11 0 9.2 3.4 11.75 6.13 2.28 2.44 3.96 4.22 7.52 4.22 3.56 0 5.24-1.78 7.52-4.22C666.27 3.4 669.42 0 675.47 0c6.04 0 9.2 3.4 11.74 6.13 2.29 2.44 3.96 4.22 7.52 4.22 3.63 0 5.24-1.78 7.52-4.22C704.8 3.4 707.95 0 714 0c6.04 0 9.2 3.4 11.75 6.13 2.28 2.44 3.96 4.22 7.52 4.22 3.55 0 5.23-1.78 7.51-4.22C743.34 3.4 746.5 0 752.53 0s9.2 3.4 11.75 6.13c2.28 2.44 3.96 4.22 7.52 4.22V17h.2Z" fill="#F1F1F1"/></g><defs><clipPath id="a"><path fill="#fff" d="M0 0h39v17H0z"/></clipPath></defs></svg>
