<svg fill="none" xmlns="http://www.w3.org/2000/svg" viewBox="0 0 62 34"><g clip-path="url(#a)"><path d="M1218.8 0c-15.65 0-15.65 14-31.19 14-15.54 0-15.65-14-31.2-14-15.54 0-15.65 14-31.19 14-15.65 0-15.65-14-31.31-14-15.65 0-15.65 14-31.19 14-15.65 0-15.65-14-31.2-14-15.65 0-15.65 14-31.19 14-15.55 0-15.98-14-31.53-14-15.65 0-15.65 14-31.2 14-15.53 0-15.75-14-31.3-14-15.65 0-15.65 14-31.2 14-15.64 0-15.64-14-31.3-14-15.65 0-15.65 14-31.2 14-15.64 0-15.64-14-31.19-14-15.54 0-15.76 14-31.41 14S734.35 0 718.8 0c-15.65 0-15.65 14-31.2 14-15.64 0-15.64-14-31.3-14-15.65 0-15.65 14-31.2 14-15.64 0-15.64-14-31.19-14-15.65 0-15.65 14-31.2 14-15.64 0-15.64-14-31.19-14-15.65 0-15.65 14-31.3 14-15.66 0-15.66-14-31.3-14-15.66 0-15.66 14-31.31 14-15.65 0-15.65-14-31.3-14-15.66 0-15.66 14-31.31 14-15.65 0-15.65-14-31.3-14-15.66 0-15.66 14-31.3 14-15.66 0-15.66-14-31.31-14-15.65 0-15.65 14-31.2 14-15.65 0-15.65-14-31.3-14-15.66 0-15.66 14-31.3 14-15.66 0-15.66-14-31.31-14-15.65 0-15.65 14-31.3 14-15.66 0-15.66-14-31.31-14C78.15 0 78.15 14 62.5 14S46.85 0 31.3 0C15.76 0 15.65 14 0 14v20h1250V14c-15.65 0-15.65-14-31.2-14Z" fill="#fff"/></g><defs><clipPath id="a"><path fill="#fff" d="M0 0h62v34H0z"/></clipPath></defs></svg>
