<svg fill="none" xmlns="http://www.w3.org/2000/svg" viewBox="0 0 39 24"><g clip-path="url(#a)"><path d="M750.78 0c-9.64 0-9.64 9.88-19.21 9.88-9.58 0-9.65-9.88-19.22-9.88-9.57 0-9.64 9.88-19.22 9.88-9.64 0-9.64-9.88-19.28-9.88s-9.64 9.88-19.22 9.88C645 9.88 645 0 635.42 0c-9.64 0-9.64 9.88-19.22 9.88-9.57 0-9.84-9.88-19.42-9.88-9.64 0-9.64 9.88-19.21 9.88-9.58 0-9.71-9.88-19.29-9.88-9.64 0-9.64 9.88-19.21 9.88-9.65 0-9.65-9.88-19.29-9.88-9.64 0-9.64 9.88-19.21 9.88-9.64 0-9.64-9.88-19.22-9.88-9.57 0-9.7 9.88-19.35 9.88-9.64 0-9.64-9.88-19.22-9.88-9.64 0-9.64 9.88-19.21 9.88-9.64 0-9.64-9.88-19.29-9.88-9.64 0-9.64 9.88-19.21 9.88-9.64 0-9.64-9.88-19.22-9.88-9.64 0-9.64 9.88-19.22 9.88C337 9.88 337 0 327.42 0c-9.64 0-9.64 9.88-19.29 9.88-9.64 0-9.64-9.88-19.28-9.88s-9.64 9.88-19.28 9.88S259.93 0 250.28 0c-9.64 0-9.64 9.88-19.28 9.88S221.36 0 211.72 0c-9.65 0-9.65 9.88-19.29 9.88-9.64 0-9.64-9.88-19.28-9.88s-9.64 9.88-19.22 9.88C144.3 9.88 144.3 0 134.65 0s-9.64 9.88-19.28 9.88c-9.65 0-9.65-9.88-19.29-9.88-9.64 0-9.64 9.88-19.28 9.88S67.16 0 57.52 0c-9.38 0-9.38 9.88-19.02 9.88C28.86 9.88 28.86 0 19.28 0 9.71 0 9.64 9.88 0 9.88V24h770V9.88c-9.64 0-9.64-9.88-19.22-9.88Z" fill="#fff"/></g><defs><clipPath id="a"><path fill="#fff" d="M0 0h39v24H0z"/></clipPath></defs></svg>
